<svg xmlns="http://www.w3.org/2000/svg" xmlns:xlink="http://www.w3.org/1999/xlink" width="1707" zoomAndPan="magnify" viewBox="0 0 1280.25 800.24998" height="1067" preserveAspectRatio="xMidYMid meet" version="1.0"><defs><g/><clipPath id="ba237c3d47"><path d="M 0.164062 43.988281 L 84.632812 43.988281 L 84.632812 162.96875 L 0.164062 162.96875 Z M 0.164062 43.988281 " clip-rule="nonzero"/></clipPath><clipPath id="aacf28f341"><path d="M 42.234375 162.753906 C 19.253906 162.753906 2.4375 151.753906 0.164062 150.464844 L 4.691406 132.664062 C 12.144531 137.191406 26.054688 145.28125 42.558594 145.28125 C 55.503906 145.28125 63.59375 140.101562 63.59375 129.429688 C 63.59375 121.339844 57.449219 115.832031 39.324219 111.632812 C 15.054688 105.796875 5.347656 92.855469 5.347656 77.640625 C 5.347656 60.167969 16.671875 43.988281 44.832031 43.988281 C 62.953125 43.988281 78.480469 53.371094 80.097656 54.351562 L 75.898438 70.839844 C 67.480469 65.660156 55.828125 60.808594 44.832031 60.808594 C 31.234375 60.808594 26.066406 66.625 26.066406 74.730469 C 26.066406 83.148438 33.191406 87.347656 46.464844 90.582031 C 72.675781 96.730469 84.328125 109.359375 84.328125 126.503906 C 84.328125 148.191406 69.113281 162.753906 42.261719 162.753906 " clip-rule="nonzero"/></clipPath><clipPath id="490e0e6dbc"><path d="M 0.164062 0.988281 L 84.472656 0.988281 L 84.472656 119.839844 L 0.164062 119.839844 Z M 0.164062 0.988281 " clip-rule="nonzero"/></clipPath><clipPath id="8175656382"><path d="M 42.234375 119.753906 C 19.253906 119.753906 2.4375 108.753906 0.164062 107.464844 L 4.691406 89.664062 C 12.144531 94.191406 26.054688 102.28125 42.558594 102.28125 C 55.503906 102.28125 63.59375 97.101562 63.59375 86.429688 C 63.59375 78.339844 57.449219 72.832031 39.324219 68.632812 C 15.054688 62.796875 5.347656 49.855469 5.347656 34.640625 C 5.347656 17.167969 16.671875 0.988281 44.832031 0.988281 C 62.953125 0.988281 78.480469 10.371094 80.097656 11.351562 L 75.898438 27.839844 C 67.480469 22.660156 55.828125 17.808594 44.832031 17.808594 C 31.234375 17.808594 26.066406 23.625 26.066406 31.730469 C 26.066406 40.148438 33.191406 44.347656 46.464844 47.582031 C 72.675781 53.730469 84.328125 66.359375 84.328125 83.503906 C 84.328125 105.191406 69.113281 119.753906 42.261719 119.753906 " clip-rule="nonzero"/></clipPath><clipPath id="a80dc8d671"><rect x="0" width="85" y="0" height="120"/></clipPath><clipPath id="84a2b763e2"><path d="M 135.757812 43.992188 L 239.960938 43.992188 L 239.960938 162.847656 L 135.757812 162.847656 Z M 135.757812 43.992188 " clip-rule="nonzero"/></clipPath><clipPath id="892489d221"><path d="M 191.09375 61.136719 C 177.496094 61.136719 165.207031 68.898438 161.003906 84.765625 L 216.65625 84.765625 C 216.65625 84.765625 216.980469 83.476562 216.980469 82.167969 C 216.980469 71.496094 208.238281 61.136719 191.09375 61.136719 M 238.339844 100.292969 L 159.0625 100.292969 C 157.117188 118.089844 164.554688 144.304688 200.800781 144.304688 C 213.105469 144.304688 229.925781 137.507812 238.015625 128.777344 L 238.015625 147.539062 C 228.632812 157.25 210.183594 162.753906 194.003906 162.753906 C 158.40625 162.753906 135.757812 137.519531 135.757812 103.21875 C 135.757812 67.296875 160.679688 43.992188 190.765625 43.992188 C 219.578125 43.992188 239.960938 64.699219 239.960938 88.328125 C 239.960938 92.21875 239.304688 96.417969 238.339844 100.308594 " clip-rule="nonzero"/></clipPath><clipPath id="c6433f4cfc"><path d="M 0.757812 0.992188 L 104.960938 0.992188 L 104.960938 119.839844 L 0.757812 119.839844 Z M 0.757812 0.992188 " clip-rule="nonzero"/></clipPath><clipPath id="1e6c275ecd"><path d="M 56.09375 18.136719 C 42.496094 18.136719 30.207031 25.898438 26.003906 41.765625 L 81.65625 41.765625 C 81.65625 41.765625 81.980469 40.476562 81.980469 39.167969 C 81.980469 28.496094 73.238281 18.136719 56.09375 18.136719 M 103.339844 57.292969 L 24.0625 57.292969 C 22.117188 75.089844 29.554688 101.304688 65.800781 101.304688 C 78.105469 101.304688 94.925781 94.507812 103.015625 85.777344 L 103.015625 104.539062 C 93.632812 114.25 75.183594 119.753906 59.003906 119.753906 C 23.40625 119.753906 0.757812 94.519531 0.757812 60.21875 C 0.757812 24.296875 25.679688 0.992188 55.765625 0.992188 C 84.578125 0.992188 104.960938 21.699219 104.960938 45.328125 C 104.960938 49.21875 104.304688 53.417969 103.339844 57.308594 " clip-rule="nonzero"/></clipPath><clipPath id="2d132ee655"><rect x="0" width="105" y="0" height="120"/></clipPath><clipPath id="8ee5d81901"><path d="M 301.121094 43.988281 L 409.855469 43.988281 L 409.855469 158.671875 L 301.121094 158.671875 Z M 301.121094 43.988281 " clip-rule="nonzero"/></clipPath><clipPath id="ec3bdf704a"><path d="M 386.234375 158.554688 L 386.234375 93.507812 C 386.234375 72.472656 377.492188 63.09375 360.675781 63.09375 C 344.820312 63.09375 324.75 77.015625 324.75 95.453125 L 324.75 158.554688 L 301.121094 158.554688 L 301.121094 48.191406 L 322.152344 48.191406 L 323.773438 67.292969 C 331.222656 54.988281 349.988281 43.988281 368.4375 43.988281 C 398.199219 43.988281 409.851562 64.695312 409.851562 92.203125 L 409.851562 158.554688 Z M 386.234375 158.554688 " clip-rule="nonzero"/></clipPath><clipPath id="a3ad0bbd88"><path d="M 0.121094 0.988281 L 108.855469 0.988281 L 108.855469 115.671875 L 0.121094 115.671875 Z M 0.121094 0.988281 " clip-rule="nonzero"/></clipPath><clipPath id="a115112c93"><path d="M 85.234375 115.554688 L 85.234375 50.507812 C 85.234375 29.472656 76.492188 20.09375 59.675781 20.09375 C 43.820312 20.09375 23.75 34.015625 23.75 52.453125 L 23.75 115.554688 L 0.121094 115.554688 L 0.121094 5.191406 L 21.152344 5.191406 L 22.773438 24.292969 C 30.222656 11.988281 48.988281 0.988281 67.4375 0.988281 C 97.199219 0.988281 108.851562 21.695312 108.851562 49.203125 L 108.851562 115.554688 Z M 85.234375 115.554688 " clip-rule="nonzero"/></clipPath><clipPath id="6c0875acda"><rect x="0" width="109" y="0" height="116"/></clipPath><clipPath id="fc498f06be"><path d="M 0.269531 240.148438 L 538.550781 240.148438 L 538.550781 252.335938 L 0.269531 252.335938 Z M 0.269531 240.148438 " clip-rule="nonzero"/></clipPath><clipPath id="a60c67e46a"><path d="M 0.269531 0.148438 L 538.550781 0.148438 L 538.550781 12.335938 L 0.269531 12.335938 Z M 0.269531 0.148438 " clip-rule="nonzero"/></clipPath><clipPath id="63e001374a"><rect x="0" width="539" y="0" height="13"/></clipPath><clipPath id="ae65e2e626"><path d="M 465.191406 43.988281 L 549.65625 43.988281 L 549.65625 162.964844 L 465.191406 162.964844 Z M 465.191406 43.988281 " clip-rule="nonzero"/></clipPath><clipPath id="b85e0f3eae"><path d="M 507.257812 162.753906 C 484.277344 162.753906 467.460938 151.753906 465.191406 150.464844 L 469.71875 132.664062 C 477.152344 137.191406 491.078125 145.28125 507.582031 145.28125 C 520.527344 145.28125 528.617188 140.101562 528.617188 129.429688 C 528.617188 121.339844 522.472656 115.832031 504.347656 111.632812 C 480.078125 105.796875 470.371094 92.855469 470.371094 77.640625 C 470.371094 60.167969 481.695312 43.988281 509.855469 43.988281 C 527.964844 43.988281 543.503906 53.371094 545.125 54.351562 L 540.921875 70.839844 C 532.507812 65.660156 520.855469 60.808594 509.855469 60.808594 C 496.257812 60.808594 491.078125 66.625 491.078125 74.730469 C 491.078125 83.148438 498.203125 87.347656 511.472656 90.582031 C 537.6875 96.730469 549.339844 109.359375 549.339844 126.503906 C 549.339844 148.191406 534.125 162.753906 507.273438 162.753906 " clip-rule="nonzero"/></clipPath><clipPath id="c828c9b339"><path d="M 0.191406 0.988281 L 84.394531 0.988281 L 84.394531 119.839844 L 0.191406 119.839844 Z M 0.191406 0.988281 " clip-rule="nonzero"/></clipPath><clipPath id="d229438f4a"><path d="M 42.257812 119.753906 C 19.277344 119.753906 2.460938 108.753906 0.191406 107.464844 L 4.71875 89.664062 C 12.152344 94.191406 26.078125 102.28125 42.582031 102.28125 C 55.527344 102.28125 63.617188 97.101562 63.617188 86.429688 C 63.617188 78.339844 57.472656 72.832031 39.347656 68.632812 C 15.078125 62.796875 5.371094 49.855469 5.371094 34.640625 C 5.371094 17.167969 16.695312 0.988281 44.855469 0.988281 C 62.964844 0.988281 78.503906 10.371094 80.125 11.351562 L 75.921875 27.839844 C 67.507812 22.660156 55.855469 17.808594 44.855469 17.808594 C 31.257812 17.808594 26.078125 23.625 26.078125 31.730469 C 26.078125 40.148438 33.203125 44.347656 46.472656 47.582031 C 72.6875 53.730469 84.339844 66.359375 84.339844 83.503906 C 84.339844 105.191406 69.125 119.753906 42.273438 119.753906 " clip-rule="nonzero"/></clipPath><clipPath id="295d7f8cff"><rect x="0" width="85" y="0" height="120"/></clipPath><clipPath id="ceee2bc55b"><path d="M 599.808594 43.34375 L 727.375 43.34375 L 727.375 163.875 L 599.808594 163.875 Z M 599.808594 43.34375 " clip-rule="nonzero"/></clipPath><clipPath id="8c03f3207a"><path d="M 663.5625 61.792969 C 640.585938 61.792969 623.441406 78.9375 623.441406 103.222656 C 623.441406 127.507812 640.585938 144.964844 663.5625 144.964844 C 686.867188 144.964844 703.6875 127.492188 703.6875 103.222656 C 703.6875 78.953125 686.851562 61.792969 663.5625 61.792969 M 663.5625 163.414062 C 627.640625 163.398438 599.808594 135.894531 599.808594 103.207031 C 599.808594 70.523438 627.640625 43.34375 663.5625 43.34375 C 699.484375 43.34375 727.316406 70.523438 727.316406 103.207031 C 727.316406 135.894531 699.484375 163.398438 663.5625 163.398438 " clip-rule="nonzero"/></clipPath><clipPath id="11efe6ca82"><path d="M 0.808594 0.34375 L 128.375 0.34375 L 128.375 120.558594 L 0.808594 120.558594 Z M 0.808594 0.34375 " clip-rule="nonzero"/></clipPath><clipPath id="9fab0bce25"><path d="M 64.5625 18.792969 C 41.585938 18.792969 24.441406 35.9375 24.441406 60.222656 C 24.441406 84.507812 41.585938 101.964844 64.5625 101.964844 C 87.867188 101.964844 104.6875 84.492188 104.6875 60.222656 C 104.6875 35.953125 87.851562 18.792969 64.5625 18.792969 M 64.5625 120.414062 C 28.640625 120.398438 0.808594 92.894531 0.808594 60.207031 C 0.808594 27.523438 28.640625 0.34375 64.5625 0.34375 C 100.484375 0.34375 128.316406 27.523438 128.316406 60.207031 C 128.316406 92.894531 100.484375 120.398438 64.5625 120.398438 " clip-rule="nonzero"/></clipPath><clipPath id="f2b4ec3d37"><rect x="0" width="129" y="0" height="121"/></clipPath><clipPath id="8924d680b9"><path d="M 620.140625 1.167969 L 707.4375 1.167969 L 707.4375 17.953125 L 620.140625 17.953125 Z M 620.140625 1.167969 " clip-rule="nonzero"/></clipPath><clipPath id="01fe629104"><path d="M 0.140625 0.167969 L 87.4375 0.167969 L 87.4375 16.953125 L 0.140625 16.953125 Z M 0.140625 0.167969 " clip-rule="nonzero"/></clipPath><clipPath id="8da4315d51"><rect x="0" width="88" y="0" height="17"/></clipPath><clipPath id="14329a3473"><path d="M 784.589844 43.992188 L 850.539062 43.992188 L 850.539062 158.699219 L 784.589844 158.699219 Z M 784.589844 43.992188 " clip-rule="nonzero"/></clipPath><clipPath id="789fddea2a"><path d="M 808.203125 94.472656 L 808.203125 158.554688 L 784.589844 158.554688 L 784.589844 48.191406 L 805.621094 48.191406 L 807.238281 67.292969 C 814.675781 54.988281 831.507812 43.992188 850.285156 43.992188 L 850.285156 67.933594 C 829.253906 64.042969 808.21875 76.023438 808.21875 94.472656 " clip-rule="nonzero"/></clipPath><clipPath id="e0ba58319c"><path d="M 0.589844 0.992188 L 66.3125 0.992188 L 66.3125 115.699219 L 0.589844 115.699219 Z M 0.589844 0.992188 " clip-rule="nonzero"/></clipPath><clipPath id="911c094e15"><path d="M 24.203125 51.472656 L 24.203125 115.554688 L 0.589844 115.554688 L 0.589844 5.191406 L 21.621094 5.191406 L 23.238281 24.292969 C 30.675781 11.988281 47.507812 0.992188 66.285156 0.992188 L 66.285156 24.933594 C 45.253906 21.042969 24.21875 33.023438 24.21875 51.472656 " clip-rule="nonzero"/></clipPath><clipPath id="7746cf9f4a"><rect x="0" width="67" y="0" height="116"/></clipPath><clipPath id="1b650bd94f"><path d="M 903.027344 1.167969 L 926.644531 1.167969 L 926.644531 17.953125 L 903.027344 17.953125 Z M 903.027344 48.191406 L 926.644531 48.191406 L 926.644531 158.539062 L 903.027344 158.539062 Z M 903.027344 48.191406 " clip-rule="nonzero"/></clipPath><clipPath id="e9ee7465f0"><path d="M 0.0273438 0.167969 L 23.644531 0.167969 L 23.644531 16.953125 L 0.0273438 16.953125 Z M 0.0273438 47.191406 L 23.644531 47.191406 L 23.644531 157.539062 L 0.0273438 157.539062 Z M 0.0273438 47.191406 " clip-rule="nonzero"/></clipPath><clipPath id="3399fdc4c9"><rect x="0" width="24" y="0" height="158"/></clipPath><clipPath id="d13eaf088f"><path d="M 985.546875 43.988281 L 1104.3125 43.988281 L 1104.3125 162.753906 L 985.546875 162.753906 Z M 985.546875 43.988281 " clip-rule="nonzero"/></clipPath><clipPath id="bdffc4b66e"><path d="M 1009.175781 103.527344 C 1009.175781 130.707031 1026.972656 144.628906 1044.773438 144.628906 C 1061.277344 144.628906 1081.984375 132.324219 1081.984375 103.527344 C 1081.984375 74.402344 1061.277344 62.097656 1044.773438 62.097656 C 1026.972656 62.097656 1009.175781 76.332031 1009.175781 103.527344 M 1083.277344 158.554688 L 1081.984375 141.066406 C 1072.605469 155.628906 1054.152344 162.753906 1039.265625 162.753906 C 1009.816406 162.753906 985.546875 138.484375 985.546875 103.214844 C 985.546875 68.585938 1009.816406 43.988281 1039.265625 43.988281 C 1053.5 43.988281 1072.605469 51.113281 1081.984375 65.675781 L 1083.277344 48.203125 L 1104.308594 48.203125 L 1104.308594 158.554688 Z M 1083.277344 158.554688 " clip-rule="nonzero"/></clipPath><clipPath id="11efefd003"><path d="M 0.546875 0.988281 L 119.3125 0.988281 L 119.3125 119.753906 L 0.546875 119.753906 Z M 0.546875 0.988281 " clip-rule="nonzero"/></clipPath><clipPath id="c7050e385e"><path d="M 24.175781 60.527344 C 24.175781 87.707031 41.972656 101.628906 59.773438 101.628906 C 76.277344 101.628906 96.984375 89.324219 96.984375 60.527344 C 96.984375 31.402344 76.277344 19.097656 59.773438 19.097656 C 41.972656 19.097656 24.175781 33.332031 24.175781 60.527344 M 98.277344 115.554688 L 96.984375 98.066406 C 87.605469 112.628906 69.152344 119.753906 54.265625 119.753906 C 24.816406 119.753906 0.546875 95.484375 0.546875 60.214844 C 0.546875 25.585938 24.816406 0.988281 54.265625 0.988281 C 68.5 0.988281 87.605469 8.113281 96.984375 22.675781 L 98.277344 5.203125 L 119.308594 5.203125 L 119.308594 115.554688 Z M 98.277344 115.554688 " clip-rule="nonzero"/></clipPath><clipPath id="76515b836d"><rect x="0" width="120" y="0" height="120"/></clipPath><clipPath id="59595fbd2e"><path d="M 598 194 L 1115.746094 194 L 1115.746094 278.171875 L 598 278.171875 Z M 598 194 " clip-rule="nonzero"/></clipPath><clipPath id="1e665e922f"><rect x="0" width="518" y="0" height="85"/></clipPath><clipPath id="155ef6c51b"><rect x="0" width="1116" y="0" height="279"/></clipPath></defs><g transform="matrix(1, 0, 0, 1, 80, 263)"><g clip-path="url(#155ef6c51b)"><g clip-path="url(#ba237c3d47)"><g clip-path="url(#aacf28f341)"><g transform="matrix(1, 0, 0, 1, 0, 43)"><g clip-path="url(#a80dc8d671)"><g clip-path="url(#490e0e6dbc)"><g clip-path="url(#8175656382)"><path fill="#ffffff" d="M 0.164062 0.988281 L 84.304688 0.988281 L 84.304688 119.640625 L 0.164062 119.640625 Z M 0.164062 0.988281 " fill-opacity="1" fill-rule="nonzero"/></g></g></g></g></g></g><g clip-path="url(#84a2b763e2)"><g clip-path="url(#892489d221)"><g transform="matrix(1, 0, 0, 1, 135, 43)"><g clip-path="url(#2d132ee655)"><g clip-path="url(#c6433f4cfc)"><g clip-path="url(#1e6c275ecd)"><path fill="#ffffff" d="M 0.757812 0.992188 L 104.960938 0.992188 L 104.960938 119.847656 L 0.757812 119.847656 Z M 0.757812 0.992188 " fill-opacity="1" fill-rule="nonzero"/></g></g></g></g></g></g><g clip-path="url(#8ee5d81901)"><g clip-path="url(#ec3bdf704a)"><g transform="matrix(1, 0, 0, 1, 301, 43)"><g clip-path="url(#6c0875acda)"><g clip-path="url(#a3ad0bbd88)"><g clip-path="url(#a115112c93)"><path fill="#ffffff" d="M 0.121094 0.988281 L 108.855469 0.988281 L 108.855469 115.671875 L 0.121094 115.671875 Z M 0.121094 0.988281 " fill-opacity="1" fill-rule="nonzero"/></g></g></g></g></g></g><g clip-path="url(#fc498f06be)"><g transform="matrix(1, 0, 0, 1, 0, 240)"><g clip-path="url(#63e001374a)"><g clip-path="url(#a60c67e46a)"><path fill="#ffffff" d="M 0.269531 0.148438 L 538.550781 0.148438 L 538.550781 12.335938 L 0.269531 12.335938 Z M 0.269531 0.148438 " fill-opacity="1" fill-rule="nonzero"/></g></g></g></g><g clip-path="url(#ae65e2e626)"><g clip-path="url(#b85e0f3eae)"><g transform="matrix(1, 0, 0, 1, 465, 43)"><g clip-path="url(#295d7f8cff)"><g clip-path="url(#c828c9b339)"><g clip-path="url(#d229438f4a)"><path fill="#ffffff" d="M 0.191406 0.988281 L 84.328125 0.988281 L 84.328125 119.636719 L 0.191406 119.636719 Z M 0.191406 0.988281 " fill-opacity="1" fill-rule="nonzero"/></g></g></g></g></g></g><g clip-path="url(#ceee2bc55b)"><g clip-path="url(#8c03f3207a)"><g transform="matrix(1, 0, 0, 1, 599, 43)"><g clip-path="url(#f2b4ec3d37)"><g clip-path="url(#11efe6ca82)"><g clip-path="url(#9fab0bce25)"><path fill="#ffffff" d="M 0.808594 0.34375 L 128.375 0.34375 L 128.375 120.402344 L 0.808594 120.402344 Z M 0.808594 0.34375 " fill-opacity="1" fill-rule="nonzero"/></g></g></g></g></g></g><g clip-path="url(#8924d680b9)"><g transform="matrix(1, 0, 0, 1, 620, 1)"><g clip-path="url(#8da4315d51)"><g clip-path="url(#01fe629104)"><path fill="#ffffff" d="M 0.140625 0.167969 L 87.429688 0.167969 L 87.429688 16.953125 L 0.140625 16.953125 Z M 0.140625 0.167969 " fill-opacity="1" fill-rule="nonzero"/></g></g></g></g><g clip-path="url(#14329a3473)"><g clip-path="url(#789fddea2a)"><g transform="matrix(1, 0, 0, 1, 784, 43)"><g clip-path="url(#7746cf9f4a)"><g clip-path="url(#e0ba58319c)"><g clip-path="url(#911c094e15)"><path fill="#ffffff" d="M 0.589844 0.992188 L 66.28125 0.992188 L 66.28125 115.441406 L 0.589844 115.441406 Z M 0.589844 0.992188 " fill-opacity="1" fill-rule="nonzero"/></g></g></g></g></g></g><g clip-path="url(#1b650bd94f)"><g transform="matrix(1, 0, 0, 1, 903, 1)"><g clip-path="url(#3399fdc4c9)"><g clip-path="url(#e9ee7465f0)"><path fill="#ffffff" d="M 0.0273438 0.167969 L 23.652344 0.167969 L 23.652344 157.503906 L 0.0273438 157.503906 Z M 0.0273438 0.167969 " fill-opacity="1" fill-rule="nonzero"/></g></g></g></g><g clip-path="url(#d13eaf088f)"><g clip-path="url(#bdffc4b66e)"><g transform="matrix(1, 0, 0, 1, 985, 43)"><g clip-path="url(#76515b836d)"><g clip-path="url(#11efefd003)"><g clip-path="url(#c7050e385e)"><path fill="#ffffff" d="M 0.546875 0.988281 L 119.3125 0.988281 L 119.3125 119.753906 L 0.546875 119.753906 Z M 0.546875 0.988281 " fill-opacity="1" fill-rule="nonzero"/></g></g></g></g></g></g><g clip-path="url(#59595fbd2e)"><g transform="matrix(1, 0, 0, 1, 598, 194)"><g clip-path="url(#1e665e922f)"><g fill="#ffffff" fill-opacity="1"><g transform="translate(0.971903, 65.127776)"><g><path d="M 13.171875 0.59375 C 10.835938 0.59375 8.898438 -0.0507812 7.359375 -1.34375 C 5.816406 -2.632812 4.664062 -4.507812 3.90625 -6.96875 C 3.15625 -9.425781 2.78125 -12.390625 2.78125 -15.859375 C 2.78125 -19.566406 3.195312 -22.695312 4.03125 -25.25 C 4.863281 -27.8125 6.082031 -29.757812 7.6875 -31.09375 C 9.289062 -32.425781 11.25 -33.09375 13.5625 -33.09375 C 14.570312 -33.09375 15.492188 -32.984375 16.328125 -32.765625 C 17.171875 -32.546875 17.960938 -32.226562 18.703125 -31.8125 L 17.75 -29.390625 C 17.101562 -29.765625 16.445312 -30.035156 15.78125 -30.203125 C 15.113281 -30.378906 14.429688 -30.46875 13.734375 -30.46875 C 12.046875 -30.46875 10.601562 -29.925781 9.40625 -28.84375 C 8.207031 -27.769531 7.285156 -26.15625 6.640625 -24 C 5.992188 -21.84375 5.671875 -19.148438 5.671875 -15.921875 C 5.671875 -13.054688 5.941406 -10.582031 6.484375 -8.5 C 7.035156 -6.414062 7.890625 -4.804688 9.046875 -3.671875 C 10.203125 -2.535156 11.6875 -1.96875 13.5 -1.96875 C 14.3125 -1.96875 15.140625 -2.070312 15.984375 -2.28125 C 16.835938 -2.488281 17.671875 -2.796875 18.484375 -3.203125 L 18.484375 -0.625 C 17.753906 -0.25 16.898438 0.046875 15.921875 0.265625 C 14.941406 0.484375 14.023438 0.59375 13.171875 0.59375 Z M 13.171875 0.59375 "/></g></g></g><g fill="#ffffff" fill-opacity="1"><g transform="translate(26.458204, 65.127776)"><g><path d="M 11.65625 -33.09375 C 14.414062 -33.09375 16.398438 -32.207031 17.609375 -30.4375 C 18.828125 -28.664062 19.4375 -25.847656 19.4375 -21.984375 L 19.4375 0 L 17.234375 0 L 16.90625 -5.234375 L 16.78125 -5.234375 C 16.425781 -4.171875 15.945312 -3.195312 15.34375 -2.3125 C 14.75 -1.425781 13.984375 -0.71875 13.046875 -0.1875 C 12.117188 0.332031 10.945312 0.59375 9.53125 0.59375 C 7.8125 0.59375 6.421875 0.167969 5.359375 -0.671875 C 4.296875 -1.515625 3.507812 -2.617188 3 -3.984375 C 2.488281 -5.347656 2.234375 -6.804688 2.234375 -8.359375 C 2.234375 -11.585938 3.15625 -14.050781 5 -15.75 C 6.84375 -17.457031 9.457031 -18.453125 12.84375 -18.734375 L 16.609375 -19.09375 L 16.609375 -21.828125 C 16.609375 -25.054688 16.195312 -27.320312 15.375 -28.625 C 14.5625 -29.9375 13.21875 -30.59375 11.34375 -30.59375 C 10.53125 -30.59375 9.628906 -30.453125 8.640625 -30.171875 C 7.660156 -29.890625 6.59375 -29.398438 5.4375 -28.703125 L 4.421875 -30.9375 C 5.515625 -31.632812 6.679688 -32.164062 7.921875 -32.53125 C 9.171875 -32.90625 10.414062 -33.09375 11.65625 -33.09375 Z M 16.671875 -16.8125 L 13.140625 -16.515625 C 10.410156 -16.253906 8.394531 -15.460938 7.09375 -14.140625 C 5.789062 -12.816406 5.140625 -10.910156 5.140625 -8.421875 C 5.140625 -6.234375 5.585938 -4.570312 6.484375 -3.4375 C 7.378906 -2.300781 8.613281 -1.734375 10.1875 -1.734375 C 12.4375 -1.734375 14.078125 -2.785156 15.109375 -4.890625 C 16.148438 -7.003906 16.671875 -9.804688 16.671875 -13.296875 Z M 16.671875 -16.8125 "/></g></g></g><g fill="#ffffff" fill-opacity="1"><g transform="translate(55.558024, 65.127776)"><g><path d="M 13.6875 -33 C 14.101562 -33 14.546875 -32.953125 15.015625 -32.859375 C 15.492188 -32.773438 15.972656 -32.625 16.453125 -32.40625 L 15.859375 -29.59375 C 15.554688 -29.71875 15.203125 -29.828125 14.796875 -29.921875 C 14.390625 -30.023438 13.96875 -30.078125 13.53125 -30.078125 C 12.507812 -30.078125 11.597656 -29.695312 10.796875 -28.9375 C 9.992188 -28.1875 9.3125 -27.175781 8.75 -25.90625 C 8.195312 -24.644531 7.773438 -23.242188 7.484375 -21.703125 C 7.191406 -20.160156 7.054688 -18.601562 7.078125 -17.03125 L 7.078125 0 L 4.1875 0 L 4.1875 -32.46875 L 6.390625 -32.46875 L 6.875 -25.84375 L 7.078125 -25.84375 C 7.421875 -27.007812 7.878906 -28.132812 8.453125 -29.21875 C 9.023438 -30.3125 9.738281 -31.210938 10.59375 -31.921875 C 11.457031 -32.640625 12.488281 -33 13.6875 -33 Z M 13.6875 -33 "/></g></g></g><g fill="#ffffff" fill-opacity="1"><g transform="translate(78.117673, 65.127776)"><g><path d="M 7.265625 -32.46875 L 7.265625 0 L 4.453125 0 L 4.453125 -32.46875 Z M 5.9375 -44.625 C 6.632812 -44.625 7.144531 -44.375 7.46875 -43.875 C 7.800781 -43.375 7.96875 -42.757812 7.96875 -42.03125 C 7.96875 -41.226562 7.785156 -40.585938 7.421875 -40.109375 C 7.054688 -39.628906 6.546875 -39.390625 5.890625 -39.390625 C 5.242188 -39.390625 4.738281 -39.632812 4.375 -40.125 C 4.007812 -40.613281 3.828125 -41.238281 3.828125 -42 C 3.828125 -42.75 3.992188 -43.375 4.328125 -43.875 C 4.671875 -44.375 5.207031 -44.625 5.9375 -44.625 Z M 5.9375 -44.625 "/></g></g></g><g fill="#ffffff" fill-opacity="1"><g transform="translate(95.271975, 65.127776)"><g><path d="M 22.875 -16.28125 C 22.875 -13.53125 22.671875 -11.101562 22.265625 -9 C 21.859375 -6.90625 21.238281 -5.144531 20.40625 -3.71875 C 19.582031 -2.289062 18.539062 -1.210938 17.28125 -0.484375 C 16.03125 0.230469 14.5625 0.59375 12.875 0.59375 C 11.195312 0.59375 9.726562 0.226562 8.46875 -0.5 C 7.207031 -1.238281 6.144531 -2.328125 5.28125 -3.765625 C 4.425781 -5.203125 3.785156 -6.972656 3.359375 -9.078125 C 2.929688 -11.191406 2.71875 -13.613281 2.71875 -16.34375 C 2.71875 -19.96875 3.082031 -23.019531 3.8125 -25.5 C 4.550781 -27.988281 5.664062 -29.875 7.15625 -31.15625 C 8.65625 -32.445312 10.550781 -33.09375 12.84375 -33.09375 C 15.175781 -33.09375 17.078125 -32.429688 18.546875 -31.109375 C 20.023438 -29.785156 21.113281 -27.867188 21.8125 -25.359375 C 22.519531 -22.847656 22.875 -19.820312 22.875 -16.28125 Z M 5.609375 -16.34375 C 5.609375 -13.195312 5.863281 -10.5625 6.375 -8.4375 C 6.882812 -6.3125 7.679688 -4.707031 8.765625 -3.625 C 9.847656 -2.539062 11.226562 -2 12.90625 -2 C 14.539062 -2 15.878906 -2.507812 16.921875 -3.53125 C 17.960938 -4.5625 18.738281 -6.140625 19.25 -8.265625 C 19.757812 -10.398438 20.015625 -13.082031 20.015625 -16.3125 C 20.015625 -19.3125 19.78125 -21.867188 19.3125 -23.984375 C 18.84375 -26.097656 18.078125 -27.710938 17.015625 -28.828125 C 15.960938 -29.941406 14.570312 -30.5 12.84375 -30.5 C 10.289062 -30.5 8.445312 -29.285156 7.3125 -26.859375 C 6.175781 -24.441406 5.609375 -20.9375 5.609375 -16.34375 Z M 5.609375 -16.34375 "/></g></g></g><g fill="#ffffff" fill-opacity="1"><g transform="translate(126.46226, 65.127776)"><g><path d="M 13.171875 0.59375 C 10.835938 0.59375 8.898438 -0.0507812 7.359375 -1.34375 C 5.816406 -2.632812 4.664062 -4.507812 3.90625 -6.96875 C 3.15625 -9.425781 2.78125 -12.390625 2.78125 -15.859375 C 2.78125 -19.566406 3.195312 -22.695312 4.03125 -25.25 C 4.863281 -27.8125 6.082031 -29.757812 7.6875 -31.09375 C 9.289062 -32.425781 11.25 -33.09375 13.5625 -33.09375 C 14.570312 -33.09375 15.492188 -32.984375 16.328125 -32.765625 C 17.171875 -32.546875 17.960938 -32.226562 18.703125 -31.8125 L 17.75 -29.390625 C 17.101562 -29.765625 16.445312 -30.035156 15.78125 -30.203125 C 15.113281 -30.378906 14.429688 -30.46875 13.734375 -30.46875 C 12.046875 -30.46875 10.601562 -29.925781 9.40625 -28.84375 C 8.207031 -27.769531 7.285156 -26.15625 6.640625 -24 C 5.992188 -21.84375 5.671875 -19.148438 5.671875 -15.921875 C 5.671875 -13.054688 5.941406 -10.582031 6.484375 -8.5 C 7.035156 -6.414062 7.890625 -4.804688 9.046875 -3.671875 C 10.203125 -2.535156 11.6875 -1.96875 13.5 -1.96875 C 14.3125 -1.96875 15.140625 -2.070312 15.984375 -2.28125 C 16.835938 -2.488281 17.671875 -2.796875 18.484375 -3.203125 L 18.484375 -0.625 C 17.753906 -0.25 16.898438 0.046875 15.921875 0.265625 C 14.941406 0.484375 14.023438 0.59375 13.171875 0.59375 Z M 13.171875 0.59375 "/></g></g></g><g fill="#ffffff" fill-opacity="1"><g transform="translate(151.948561, 65.127776)"><g><path d="M 11.65625 -33.09375 C 14.414062 -33.09375 16.398438 -32.207031 17.609375 -30.4375 C 18.828125 -28.664062 19.4375 -25.847656 19.4375 -21.984375 L 19.4375 0 L 17.234375 0 L 16.90625 -5.234375 L 16.78125 -5.234375 C 16.425781 -4.171875 15.945312 -3.195312 15.34375 -2.3125 C 14.75 -1.425781 13.984375 -0.71875 13.046875 -0.1875 C 12.117188 0.332031 10.945312 0.59375 9.53125 0.59375 C 7.8125 0.59375 6.421875 0.167969 5.359375 -0.671875 C 4.296875 -1.515625 3.507812 -2.617188 3 -3.984375 C 2.488281 -5.347656 2.234375 -6.804688 2.234375 -8.359375 C 2.234375 -11.585938 3.15625 -14.050781 5 -15.75 C 6.84375 -17.457031 9.457031 -18.453125 12.84375 -18.734375 L 16.609375 -19.09375 L 16.609375 -21.828125 C 16.609375 -25.054688 16.195312 -27.320312 15.375 -28.625 C 14.5625 -29.9375 13.21875 -30.59375 11.34375 -30.59375 C 10.53125 -30.59375 9.628906 -30.453125 8.640625 -30.171875 C 7.660156 -29.890625 6.59375 -29.398438 5.4375 -28.703125 L 4.421875 -30.9375 C 5.515625 -31.632812 6.679688 -32.164062 7.921875 -32.53125 C 9.171875 -32.90625 10.414062 -33.09375 11.65625 -33.09375 Z M 16.671875 -16.8125 L 13.140625 -16.515625 C 10.410156 -16.253906 8.394531 -15.460938 7.09375 -14.140625 C 5.789062 -12.816406 5.140625 -10.910156 5.140625 -8.421875 C 5.140625 -6.234375 5.585938 -4.570312 6.484375 -3.4375 C 7.378906 -2.300781 8.613281 -1.734375 10.1875 -1.734375 C 12.4375 -1.734375 14.078125 -2.785156 15.109375 -4.890625 C 16.148438 -7.003906 16.671875 -9.804688 16.671875 -13.296875 Z M 16.671875 -16.8125 "/></g></g></g><g fill="#ffffff" fill-opacity="1"><g transform="translate(181.048381, 65.127776)"><g/></g></g><g fill="#ffffff" fill-opacity="1"><g transform="translate(198.053365, 65.127776)"><g><path d="M 14.75 -33.09375 C 17.800781 -33.09375 20.125 -31.71875 21.71875 -28.96875 C 23.3125 -26.21875 24.109375 -22.054688 24.109375 -16.484375 C 24.109375 -12.660156 23.726562 -9.484375 22.96875 -6.953125 C 22.207031 -4.429688 21.128906 -2.539062 19.734375 -1.28125 C 18.347656 -0.03125 16.675781 0.59375 14.71875 0.59375 C 13.351562 0.59375 12.160156 0.289062 11.140625 -0.3125 C 10.128906 -0.914062 9.285156 -1.703125 8.609375 -2.671875 C 7.941406 -3.640625 7.441406 -4.660156 7.109375 -5.734375 L 6.921875 -5.734375 C 6.960938 -5.191406 7 -4.546875 7.03125 -3.796875 C 7.0625 -3.054688 7.078125 -2.257812 7.078125 -1.40625 L 7.078125 14.359375 L 4.1875 14.359375 L 4.1875 -32.46875 L 6.421875 -32.46875 L 6.6875 -26.109375 L 6.90625 -26.109375 C 7.34375 -27.398438 7.894531 -28.578125 8.5625 -29.640625 C 9.226562 -30.710938 10.0625 -31.554688 11.0625 -32.171875 C 12.070312 -32.785156 13.300781 -33.09375 14.75 -33.09375 Z M 14.28125 -30.53125 C 12.75 -30.53125 11.4375 -29.992188 10.34375 -28.921875 C 9.257812 -27.859375 8.441406 -26.367188 7.890625 -24.453125 C 7.347656 -22.546875 7.078125 -20.300781 7.078125 -17.71875 L 7.078125 -14.453125 C 7.078125 -11.847656 7.367188 -9.609375 7.953125 -7.734375 C 8.546875 -5.859375 9.382812 -4.429688 10.46875 -3.453125 C 11.550781 -2.484375 12.832031 -2 14.3125 -2 C 15.644531 -2 16.832031 -2.472656 17.875 -3.421875 C 18.914062 -4.367188 19.734375 -5.898438 20.328125 -8.015625 C 20.929688 -10.140625 21.234375 -12.953125 21.234375 -16.453125 C 21.234375 -21.015625 20.679688 -24.5 19.578125 -26.90625 C 18.472656 -29.320312 16.707031 -30.53125 14.28125 -30.53125 Z M 14.28125 -30.53125 "/></g></g></g><g fill="#ffffff" fill-opacity="1"><g transform="translate(230.378474, 65.127776)"><g><path d="M 22.875 -16.28125 C 22.875 -13.53125 22.671875 -11.101562 22.265625 -9 C 21.859375 -6.90625 21.238281 -5.144531 20.40625 -3.71875 C 19.582031 -2.289062 18.539062 -1.210938 17.28125 -0.484375 C 16.03125 0.230469 14.5625 0.59375 12.875 0.59375 C 11.195312 0.59375 9.726562 0.226562 8.46875 -0.5 C 7.207031 -1.238281 6.144531 -2.328125 5.28125 -3.765625 C 4.425781 -5.203125 3.785156 -6.972656 3.359375 -9.078125 C 2.929688 -11.191406 2.71875 -13.613281 2.71875 -16.34375 C 2.71875 -19.96875 3.082031 -23.019531 3.8125 -25.5 C 4.550781 -27.988281 5.664062 -29.875 7.15625 -31.15625 C 8.65625 -32.445312 10.550781 -33.09375 12.84375 -33.09375 C 15.175781 -33.09375 17.078125 -32.429688 18.546875 -31.109375 C 20.023438 -29.785156 21.113281 -27.867188 21.8125 -25.359375 C 22.519531 -22.847656 22.875 -19.820312 22.875 -16.28125 Z M 5.609375 -16.34375 C 5.609375 -13.195312 5.863281 -10.5625 6.375 -8.4375 C 6.882812 -6.3125 7.679688 -4.707031 8.765625 -3.625 C 9.847656 -2.539062 11.226562 -2 12.90625 -2 C 14.539062 -2 15.878906 -2.507812 16.921875 -3.53125 C 17.960938 -4.5625 18.738281 -6.140625 19.25 -8.265625 C 19.757812 -10.398438 20.015625 -13.082031 20.015625 -16.3125 C 20.015625 -19.3125 19.78125 -21.867188 19.3125 -23.984375 C 18.84375 -26.097656 18.078125 -27.710938 17.015625 -28.828125 C 15.960938 -29.941406 14.570312 -30.5 12.84375 -30.5 C 10.289062 -30.5 8.445312 -29.285156 7.3125 -26.859375 C 6.175781 -24.441406 5.609375 -20.9375 5.609375 -16.34375 Z M 5.609375 -16.34375 "/></g></g></g><g fill="#ffffff" fill-opacity="1"><g transform="translate(261.568759, 65.127776)"><g><path d="M 13.6875 -33 C 14.101562 -33 14.546875 -32.953125 15.015625 -32.859375 C 15.492188 -32.773438 15.972656 -32.625 16.453125 -32.40625 L 15.859375 -29.59375 C 15.554688 -29.71875 15.203125 -29.828125 14.796875 -29.921875 C 14.390625 -30.023438 13.96875 -30.078125 13.53125 -30.078125 C 12.507812 -30.078125 11.597656 -29.695312 10.796875 -28.9375 C 9.992188 -28.1875 9.3125 -27.175781 8.75 -25.90625 C 8.195312 -24.644531 7.773438 -23.242188 7.484375 -21.703125 C 7.191406 -20.160156 7.054688 -18.601562 7.078125 -17.03125 L 7.078125 0 L 4.1875 0 L 4.1875 -32.46875 L 6.390625 -32.46875 L 6.875 -25.84375 L 7.078125 -25.84375 C 7.421875 -27.007812 7.878906 -28.132812 8.453125 -29.21875 C 9.023438 -30.3125 9.738281 -31.210938 10.59375 -31.921875 C 11.457031 -32.640625 12.488281 -33 13.6875 -33 Z M 13.6875 -33 "/></g></g></g><g fill="#ffffff" fill-opacity="1"><g transform="translate(284.128407, 65.127776)"><g/></g></g><g fill="#ffffff" fill-opacity="1"><g transform="translate(301.133391, 65.127776)"><g><path d="M 14.640625 -33.09375 C 17.003906 -33.09375 18.816406 -32.25 20.078125 -30.5625 C 21.347656 -28.882812 21.984375 -26.253906 21.984375 -22.671875 L 21.984375 0 L 19.109375 0 L 19.109375 -21.953125 C 19.109375 -24.960938 18.6875 -27.144531 17.84375 -28.5 C 17 -29.851562 15.789062 -30.53125 14.21875 -30.53125 C 12.082031 -30.53125 10.351562 -29.523438 9.03125 -27.515625 C 7.707031 -25.515625 7.046875 -22.4375 7.046875 -18.28125 L 7.046875 0 L 4.1875 0 L 4.1875 -32.46875 L 6.453125 -32.46875 L 6.6875 -26.5 L 6.90625 -26.5 C 7.257812 -27.664062 7.769531 -28.75 8.4375 -29.75 C 9.101562 -30.75 9.945312 -31.554688 10.96875 -32.171875 C 12 -32.785156 13.222656 -33.09375 14.640625 -33.09375 Z M 14.640625 -33.09375 "/></g></g></g><g fill="#ffffff" fill-opacity="1"><g transform="translate(332.771615, 65.127776)"><g><path d="M 11.65625 -33.09375 C 14.414062 -33.09375 16.398438 -32.207031 17.609375 -30.4375 C 18.828125 -28.664062 19.4375 -25.847656 19.4375 -21.984375 L 19.4375 0 L 17.234375 0 L 16.90625 -5.234375 L 16.78125 -5.234375 C 16.425781 -4.171875 15.945312 -3.195312 15.34375 -2.3125 C 14.75 -1.425781 13.984375 -0.71875 13.046875 -0.1875 C 12.117188 0.332031 10.945312 0.59375 9.53125 0.59375 C 7.8125 0.59375 6.421875 0.167969 5.359375 -0.671875 C 4.296875 -1.515625 3.507812 -2.617188 3 -3.984375 C 2.488281 -5.347656 2.234375 -6.804688 2.234375 -8.359375 C 2.234375 -11.585938 3.15625 -14.050781 5 -15.75 C 6.84375 -17.457031 9.457031 -18.453125 12.84375 -18.734375 L 16.609375 -19.09375 L 16.609375 -21.828125 C 16.609375 -25.054688 16.195312 -27.320312 15.375 -28.625 C 14.5625 -29.9375 13.21875 -30.59375 11.34375 -30.59375 C 10.53125 -30.59375 9.628906 -30.453125 8.640625 -30.171875 C 7.660156 -29.890625 6.59375 -29.398438 5.4375 -28.703125 L 4.421875 -30.9375 C 5.515625 -31.632812 6.679688 -32.164062 7.921875 -32.53125 C 9.171875 -32.90625 10.414062 -33.09375 11.65625 -33.09375 Z M 16.671875 -16.8125 L 13.140625 -16.515625 C 10.410156 -16.253906 8.394531 -15.460938 7.09375 -14.140625 C 5.789062 -12.816406 5.140625 -10.910156 5.140625 -8.421875 C 5.140625 -6.234375 5.585938 -4.570312 6.484375 -3.4375 C 7.378906 -2.300781 8.613281 -1.734375 10.1875 -1.734375 C 12.4375 -1.734375 14.078125 -2.785156 15.109375 -4.890625 C 16.148438 -7.003906 16.671875 -9.804688 16.671875 -13.296875 Z M 16.671875 -16.8125 "/></g></g></g><g fill="#ffffff" fill-opacity="1"><g transform="translate(361.871452, 65.127776)"><g><path d="M 10.125 -1.96875 C 10.644531 -1.96875 11.15625 -2.023438 11.65625 -2.140625 C 12.164062 -2.265625 12.601562 -2.414062 12.96875 -2.59375 L 12.96875 -0.15625 C 12.488281 0.0585938 11.960938 0.238281 11.390625 0.375 C 10.828125 0.519531 10.195312 0.59375 9.5 0.59375 C 8.164062 0.59375 7.117188 0.292969 6.359375 -0.296875 C 5.609375 -0.890625 5.066406 -1.773438 4.734375 -2.953125 C 4.398438 -4.128906 4.234375 -5.582031 4.234375 -7.3125 L 4.234375 -29.984375 L 1.1875 -29.984375 L 1.1875 -31.6875 L 4.265625 -32.4375 L 5.015625 -40.171875 L 7.109375 -40.171875 L 7.109375 -32.46875 L 12.9375 -32.46875 L 12.9375 -29.984375 L 7.109375 -29.984375 L 7.109375 -7.40625 C 7.109375 -5.550781 7.3125 -4.179688 7.71875 -3.296875 C 8.125 -2.410156 8.925781 -1.96875 10.125 -1.96875 Z M 10.125 -1.96875 "/></g></g></g><g fill="#ffffff" fill-opacity="1"><g transform="translate(381.355148, 65.127776)"><g><path d="M 21.859375 -32.46875 L 21.859375 0 L 19.59375 0 L 19.359375 -5.921875 L 19.140625 -5.921875 C 18.785156 -4.785156 18.289062 -3.722656 17.65625 -2.734375 C 17.019531 -1.742188 16.195312 -0.941406 15.1875 -0.328125 C 14.1875 0.285156 12.945312 0.59375 11.46875 0.59375 C 9.738281 0.59375 8.328125 0.179688 7.234375 -0.640625 C 6.148438 -1.460938 5.347656 -2.695312 4.828125 -4.34375 C 4.316406 -5.988281 4.0625 -7.992188 4.0625 -10.359375 L 4.0625 -32.46875 L 6.921875 -32.46875 L 6.921875 -11.015625 C 6.921875 -7.867188 7.335938 -5.582031 8.171875 -4.15625 C 9.015625 -2.738281 10.253906 -2.03125 11.890625 -2.03125 C 13.441406 -2.03125 14.738281 -2.472656 15.78125 -3.359375 C 16.832031 -4.242188 17.628906 -5.613281 18.171875 -7.46875 C 18.722656 -9.320312 19 -11.660156 19 -14.484375 L 19 -32.46875 Z M 21.859375 -32.46875 "/></g></g></g><g fill="#ffffff" fill-opacity="1"><g transform="translate(412.993373, 65.127776)"><g><path d="M 13.6875 -33 C 14.101562 -33 14.546875 -32.953125 15.015625 -32.859375 C 15.492188 -32.773438 15.972656 -32.625 16.453125 -32.40625 L 15.859375 -29.59375 C 15.554688 -29.71875 15.203125 -29.828125 14.796875 -29.921875 C 14.390625 -30.023438 13.96875 -30.078125 13.53125 -30.078125 C 12.507812 -30.078125 11.597656 -29.695312 10.796875 -28.9375 C 9.992188 -28.1875 9.3125 -27.175781 8.75 -25.90625 C 8.195312 -24.644531 7.773438 -23.242188 7.484375 -21.703125 C 7.191406 -20.160156 7.054688 -18.601562 7.078125 -17.03125 L 7.078125 0 L 4.1875 0 L 4.1875 -32.46875 L 6.390625 -32.46875 L 6.875 -25.84375 L 7.078125 -25.84375 C 7.421875 -27.007812 7.878906 -28.132812 8.453125 -29.21875 C 9.023438 -30.3125 9.738281 -31.210938 10.59375 -31.921875 C 11.457031 -32.640625 12.488281 -33 13.6875 -33 Z M 13.6875 -33 "/></g></g></g><g fill="#ffffff" fill-opacity="1"><g transform="translate(435.553005, 65.127776)"><g><path d="M 12.390625 -33.0625 C 14.585938 -33.0625 16.347656 -32.382812 17.671875 -31.03125 C 18.992188 -29.675781 19.953125 -27.90625 20.546875 -25.71875 C 21.148438 -23.53125 21.453125 -21.148438 21.453125 -18.578125 L 21.453125 -16.21875 L 5.609375 -16.21875 C 5.609375 -11.5625 6.28125 -8.007812 7.625 -5.5625 C 8.96875 -3.125 11.003906 -1.90625 13.734375 -1.90625 C 14.847656 -1.90625 15.953125 -2.09375 17.046875 -2.46875 C 18.148438 -2.851562 19.257812 -3.425781 20.375 -4.1875 L 20.375 -1.40625 C 19.394531 -0.769531 18.335938 -0.28125 17.203125 0.0625 C 16.066406 0.414062 14.84375 0.59375 13.53125 0.59375 C 11.019531 0.59375 8.96875 -0.101562 7.375 -1.5 C 5.78125 -2.90625 4.613281 -4.867188 3.875 -7.390625 C 3.144531 -9.910156 2.78125 -12.84375 2.78125 -16.1875 C 2.78125 -19.675781 3.132812 -22.675781 3.84375 -25.1875 C 4.550781 -27.707031 5.613281 -29.648438 7.03125 -31.015625 C 8.457031 -32.378906 10.242188 -33.0625 12.390625 -33.0625 Z M 12.390625 -30.59375 C 10.421875 -30.59375 8.851562 -29.609375 7.6875 -27.640625 C 6.519531 -25.679688 5.859375 -22.679688 5.703125 -18.640625 L 18.78125 -18.640625 C 18.78125 -20.785156 18.5625 -22.769531 18.125 -24.59375 C 17.6875 -26.414062 17 -27.867188 16.0625 -28.953125 C 15.132812 -30.046875 13.910156 -30.59375 12.390625 -30.59375 Z M 12.390625 -30.59375 "/></g></g></g><g fill="#ffffff" fill-opacity="1"><g transform="translate(465.250117, 65.127776)"><g><path d="M 15.4375 0 L 1.671875 0 L 1.671875 -2.1875 L 12.125 -29.921875 L 2.453125 -29.921875 L 2.453125 -32.46875 L 15.171875 -32.46875 L 15.171875 -30.234375 L 4.78125 -2.53125 L 15.4375 -2.53125 Z M 15.4375 0 "/></g></g></g><g fill="#ffffff" fill-opacity="1"><g transform="translate(487.630566, 65.127776)"><g><path d="M 11.65625 -33.09375 C 14.414062 -33.09375 16.398438 -32.207031 17.609375 -30.4375 C 18.828125 -28.664062 19.4375 -25.847656 19.4375 -21.984375 L 19.4375 0 L 17.234375 0 L 16.90625 -5.234375 L 16.78125 -5.234375 C 16.425781 -4.171875 15.945312 -3.195312 15.34375 -2.3125 C 14.75 -1.425781 13.984375 -0.71875 13.046875 -0.1875 C 12.117188 0.332031 10.945312 0.59375 9.53125 0.59375 C 7.8125 0.59375 6.421875 0.167969 5.359375 -0.671875 C 4.296875 -1.515625 3.507812 -2.617188 3 -3.984375 C 2.488281 -5.347656 2.234375 -6.804688 2.234375 -8.359375 C 2.234375 -11.585938 3.15625 -14.050781 5 -15.75 C 6.84375 -17.457031 9.457031 -18.453125 12.84375 -18.734375 L 16.609375 -19.09375 L 16.609375 -21.828125 C 16.609375 -25.054688 16.195312 -27.320312 15.375 -28.625 C 14.5625 -29.9375 13.21875 -30.59375 11.34375 -30.59375 C 10.53125 -30.59375 9.628906 -30.453125 8.640625 -30.171875 C 7.660156 -29.890625 6.59375 -29.398438 5.4375 -28.703125 L 4.421875 -30.9375 C 5.515625 -31.632812 6.679688 -32.164062 7.921875 -32.53125 C 9.171875 -32.90625 10.414062 -33.09375 11.65625 -33.09375 Z M 16.671875 -16.8125 L 13.140625 -16.515625 C 10.410156 -16.253906 8.394531 -15.460938 7.09375 -14.140625 C 5.789062 -12.816406 5.140625 -10.910156 5.140625 -8.421875 C 5.140625 -6.234375 5.585938 -4.570312 6.484375 -3.4375 C 7.378906 -2.300781 8.613281 -1.734375 10.1875 -1.734375 C 12.4375 -1.734375 14.078125 -2.785156 15.109375 -4.890625 C 16.148438 -7.003906 16.671875 -9.804688 16.671875 -13.296875 Z M 16.671875 -16.8125 "/></g></g></g></g></g></g></g></g></svg>